<svg xmlns="http://www.w3.org/2000/svg" viewBox="0 0 500 500"><g id="freepik--background-complete--inject-43"><rect y="382.4" width="500" height="0.25" style="fill:#ebebeb"></rect><rect x="416.78" y="398.49" width="33.12" height="0.25" style="fill:#ebebeb"></rect><rect x="322.53" y="401.21" width="8.69" height="0.25" style="fill:#ebebeb"></rect><rect x="396.59" y="389.21" width="19.19" height="0.25" style="fill:#ebebeb"></rect><rect x="52.46" y="390.89" width="43.19" height="0.25" style="fill:#ebebeb"></rect><rect x="104.56" y="390.89" width="6.33" height="0.25" style="fill:#ebebeb"></rect><rect x="131.47" y="395.11" width="93.68" height="0.25" style="fill:#ebebeb"></rect><path d="M237,337.8H43.91a5.71,5.71,0,0,1-5.7-5.71V60.66A5.71,5.71,0,0,1,43.91,55H237a5.71,5.71,0,0,1,5.71,5.71V332.09A5.71,5.71,0,0,1,237,337.8ZM43.91,55.2a5.46,5.46,0,0,0-5.45,5.46V332.09a5.46,5.46,0,0,0,5.45,5.46H237a5.47,5.47,0,0,0,5.46-5.46V60.66A5.47,5.47,0,0,0,237,55.2Z" style="fill:#ebebeb"></path><path d="M453.31,337.8H260.21a5.72,5.72,0,0,1-5.71-5.71V60.66A5.72,5.72,0,0,1,260.21,55h193.1A5.71,5.71,0,0,1,459,60.66V332.09A5.71,5.71,0,0,1,453.31,337.8ZM260.21,55.2a5.47,5.47,0,0,0-5.46,5.46V332.09a5.47,5.47,0,0,0,5.46,5.46h193.1a5.47,5.47,0,0,0,5.46-5.46V60.66a5.47,5.47,0,0,0-5.46-5.46Z" style="fill:#ebebeb"></path><rect x="208.75" y="121.02" width="84.16" height="189.59" transform="translate(501.65 431.63) rotate(180)" style="fill:#ebebeb"></rect><rect x="159.58" y="176.91" width="182.48" height="77.81" transform="translate(466.64 -35.01) rotate(90)" style="fill:#fafafa"></rect><rect x="249.93" y="123.66" width="1.79" height="185.17" transform="translate(501.65 432.5) rotate(180)" style="fill:#f5f5f5"></rect><rect x="206.8" y="118.55" width="88.05" height="8.92" transform="translate(501.65 246.03) rotate(180)" style="fill:#e0e0e0"></rect><rect x="206.8" y="128.46" width="88.05" height="1.06" transform="translate(501.65 257.98) rotate(180)" style="fill:#f5f5f5"></rect><rect x="206.8" y="130.86" width="88.05" height="1.06" transform="translate(501.65 262.78) rotate(180)" style="fill:#f5f5f5"></rect><rect x="206.8" y="133.26" width="88.05" height="1.06" transform="translate(501.65 267.59) rotate(180)" style="fill:#f5f5f5"></rect><rect x="206.8" y="135.66" width="88.05" height="1.06" transform="translate(501.65 272.39) rotate(180)" style="fill:#f5f5f5"></rect><rect x="206.8" y="138.06" width="88.05" height="1.06" transform="translate(501.65 277.19) rotate(180)" style="fill:#f5f5f5"></rect><rect x="206.8" y="140.46" width="88.05" height="1.06" transform="translate(501.65 281.99) rotate(180)" style="fill:#f5f5f5"></rect><rect x="206.8" y="142.87" width="88.05" height="1.06" transform="translate(501.65 286.79) rotate(180)" style="fill:#f5f5f5"></rect><rect x="206.8" y="145.27" width="88.05" height="1.06" transform="translate(501.65 291.59) rotate(180)" style="fill:#f5f5f5"></rect><rect x="206.8" y="147.67" width="88.05" height="1.06" transform="translate(501.65 296.39) rotate(180)" style="fill:#f5f5f5"></rect><rect x="206.8" y="150.07" width="88.05" height="1.06" transform="translate(501.65 301.19) rotate(180)" style="fill:#f5f5f5"></rect><rect x="206.8" y="152.47" width="88.05" height="1.06" transform="translate(501.65 305.99) rotate(180)" style="fill:#f5f5f5"></rect><rect x="206.8" y="154.87" width="88.05" height="1.06" transform="translate(501.65 310.79) rotate(180)" style="fill:#f5f5f5"></rect><rect x="206.8" y="157.27" width="88.05" height="1.06" transform="translate(501.65 315.59) rotate(180)" style="fill:#f5f5f5"></rect><rect x="206.8" y="159.67" width="88.05" height="1.06" transform="translate(501.65 320.39) rotate(180)" style="fill:#f5f5f5"></rect><rect x="206.8" y="162.07" width="88.05" height="1.06" transform="translate(501.65 325.19) rotate(180)" style="fill:#f5f5f5"></rect><rect x="206.8" y="164.47" width="88.05" height="1.06" transform="translate(501.65 329.99) rotate(180)" style="fill:#f5f5f5"></rect><rect x="206.8" y="166.87" width="88.05" height="1.06" transform="translate(501.65 334.79) rotate(180)" style="fill:#f5f5f5"></rect><rect x="206.8" y="169.27" width="88.05" height="1.06" transform="translate(501.65 339.59) rotate(180)" style="fill:#f5f5f5"></rect><rect x="113.66" y="121.02" width="84.16" height="189.59" transform="translate(311.48 431.63) rotate(180)" style="fill:#ebebeb"></rect><rect x="64.5" y="176.91" width="182.48" height="77.81" transform="translate(371.56 60.08) rotate(90)" style="fill:#fafafa"></rect><rect x="154.85" y="123.66" width="1.79" height="185.17" transform="translate(311.48 432.5) rotate(180)" style="fill:#f5f5f5"></rect><rect x="111.72" y="118.55" width="88.05" height="8.92" transform="translate(311.48 246.03) rotate(180)" style="fill:#e0e0e0"></rect><rect x="111.72" y="128.46" width="88.05" height="1.06" transform="translate(311.48 257.98) rotate(180)" style="fill:#f5f5f5"></rect><rect x="111.72" y="130.86" width="88.05" height="1.06" transform="translate(311.48 262.78) rotate(180)" style="fill:#f5f5f5"></rect><rect x="111.72" y="133.26" width="88.05" height="1.06" transform="translate(311.48 267.59) rotate(180)" style="fill:#f5f5f5"></rect><rect x="111.72" y="135.66" width="88.05" height="1.06" transform="translate(311.48 272.39) rotate(180)" style="fill:#f5f5f5"></rect><rect x="111.72" y="138.06" width="88.05" height="1.06" transform="translate(311.48 277.19) rotate(180)" style="fill:#f5f5f5"></rect><rect x="111.72" y="140.46" width="88.05" height="1.06" transform="translate(311.48 281.99) rotate(180)" style="fill:#f5f5f5"></rect><rect x="111.72" y="142.87" width="88.05" height="1.06" transform="translate(311.48 286.79) rotate(180)" style="fill:#f5f5f5"></rect><rect x="111.72" y="145.27" width="88.05" height="1.06" transform="translate(311.48 291.59) rotate(180)" style="fill:#f5f5f5"></rect><rect x="111.72" y="147.67" width="88.05" height="1.06" transform="translate(311.48 296.39) rotate(180)" style="fill:#f5f5f5"></rect><rect x="111.72" y="150.07" width="88.05" height="1.06" transform="translate(311.48 301.19) rotate(180)" style="fill:#f5f5f5"></rect><rect x="111.72" y="152.47" width="88.05" height="1.06" transform="translate(311.48 305.99) rotate(180)" style="fill:#f5f5f5"></rect><rect x="111.72" y="154.87" width="88.05" height="1.06" transform="translate(311.48 310.79) rotate(180)" style="fill:#f5f5f5"></rect><rect x="111.72" y="157.27" width="88.05" height="1.06" transform="translate(311.48 315.59) rotate(180)" style="fill:#f5f5f5"></rect><rect x="111.72" y="159.67" width="88.05" height="1.06" transform="translate(311.48 320.39) rotate(180)" style="fill:#f5f5f5"></rect><rect x="111.72" y="162.07" width="88.05" height="1.06" transform="translate(311.48 325.19) rotate(180)" style="fill:#f5f5f5"></rect><rect x="111.72" y="164.47" width="88.05" height="1.06" transform="translate(311.48 329.99) rotate(180)" style="fill:#f5f5f5"></rect><rect x="111.72" y="166.87" width="88.05" height="1.06" transform="translate(311.48 334.79) rotate(180)" style="fill:#f5f5f5"></rect><rect x="111.72" y="169.27" width="88.05" height="1.06" transform="translate(311.48 339.59) rotate(180)" style="fill:#f5f5f5"></rect><rect x="303.83" y="121.02" width="84.16" height="189.59" transform="translate(691.82 431.63) rotate(180)" style="fill:#ebebeb"></rect><rect x="254.67" y="176.91" width="182.48" height="77.81" transform="translate(561.73 -130.1) rotate(90)" style="fill:#fafafa"></rect><rect x="345.02" y="123.66" width="1.79" height="185.17" transform="translate(691.82 432.5) rotate(180)" style="fill:#f5f5f5"></rect><rect x="301.89" y="118.55" width="88.05" height="8.92" transform="translate(691.82 246.03) rotate(180)" style="fill:#e0e0e0"></rect><rect x="301.89" y="128.46" width="88.05" height="1.06" transform="translate(691.82 257.98) rotate(180)" style="fill:#f5f5f5"></rect><rect x="301.89" y="130.86" width="88.05" height="1.06" transform="translate(691.82 262.78) rotate(180)" style="fill:#f5f5f5"></rect><rect x="301.89" y="133.26" width="88.05" height="1.06" transform="translate(691.82 267.59) rotate(180)" style="fill:#f5f5f5"></rect><rect x="301.89" y="135.66" width="88.05" height="1.06" transform="translate(691.82 272.39) rotate(180)" style="fill:#f5f5f5"></rect><rect x="301.89" y="138.06" width="88.05" height="1.06" transform="translate(691.82 277.19) rotate(180)" style="fill:#f5f5f5"></rect><rect x="301.89" y="140.46" width="88.05" height="1.06" transform="translate(691.82 281.99) rotate(180)" style="fill:#f5f5f5"></rect><rect x="301.89" y="142.87" width="88.05" height="1.06" transform="translate(691.82 286.79) rotate(180)" style="fill:#f5f5f5"></rect><rect x="301.89" y="145.27" width="88.05" height="1.06" transform="translate(691.82 291.59) rotate(180)" style="fill:#f5f5f5"></rect><rect x="301.89" y="147.67" width="88.05" height="1.06" transform="translate(691.82 296.39) rotate(180)" style="fill:#f5f5f5"></rect><rect x="301.89" y="150.07" width="88.05" height="1.06" transform="translate(691.82 301.19) rotate(180)" style="fill:#f5f5f5"></rect><rect x="301.89" y="152.47" width="88.05" height="1.06" transform="translate(691.82 305.99) rotate(180)" style="fill:#f5f5f5"></rect><rect x="301.89" y="154.87" width="88.05" height="1.06" transform="translate(691.82 310.79) rotate(180)" style="fill:#f5f5f5"></rect><rect x="301.89" y="157.27" width="88.05" height="1.06" transform="translate(691.82 315.59) rotate(180)" style="fill:#f5f5f5"></rect><rect x="301.89" y="159.67" width="88.05" height="1.06" transform="translate(691.82 320.39) rotate(180)" style="fill:#f5f5f5"></rect><rect x="301.89" y="162.07" width="88.05" height="1.06" transform="translate(691.82 325.19) rotate(180)" style="fill:#f5f5f5"></rect><rect x="301.89" y="164.47" width="88.05" height="1.06" transform="translate(691.82 329.99) rotate(180)" style="fill:#f5f5f5"></rect><rect x="301.89" y="166.87" width="88.05" height="1.06" transform="translate(691.82 334.79) rotate(180)" style="fill:#f5f5f5"></rect><rect x="301.89" y="169.27" width="88.05" height="1.06" transform="translate(691.82 339.59) rotate(180)" style="fill:#f5f5f5"></rect><path d="M394.51,350.18c0-.35-1.19-35.3-6.88-40.82-5.52-5.38-11.87-.2-12.14,0l-.57-.69c.08-.06,7.24-5.9,13.33,0,5.94,5.77,7.11,40,7.15,41.43Z" style="fill:#e0e0e0"></path><path d="M395,357.05c0-.42-3.88-41.95,11.29-59.36l.67.58C392,315.39,395.85,356.55,395.89,357Z" style="fill:#e0e0e0"></path><path d="M394.44,352.65l-.89,0c0-.48,3-47.22-8.15-57.46l.6-.65C397.44,305,394.57,350.71,394.44,352.65Z" style="fill:#e0e0e0"></path><path d="M395.89,352.63H395c0-1.29.37-31.57,9-36.51a6.1,6.1,0,0,1,5.57-.54c5.2,2.15,7.78,11.41,7.88,11.81l-.85.23c0-.09-2.57-9.23-7.37-11.22a5.25,5.25,0,0,0-4.79.5C396.25,321.56,395.89,352.32,395.89,352.63Z" style="fill:#e0e0e0"></path><path d="M392.54,352.65l-.89,0c0-.24,1.3-23.94-5.1-32.28-1.55-2-3.23-3-5-2.87-4.19.3-7.7,6.43-7.73,6.49l-.78-.44c.15-.27,3.78-6.61,8.45-6.93,2.09-.15,4,.93,5.78,3.2C393.86,328.39,392.6,351.66,392.54,352.65Z" style="fill:#e0e0e0"></path><path d="M393.94,355.87c-.17-2.3-4.18-56.4,2.87-65.94l.71.53c-6.85,9.27-2.73,64.79-2.69,65.35Z" style="fill:#e0e0e0"></path><path d="M411.45,321.06s-4.22,1.55-3,5.23S423.11,336,423.11,336s5.6-5.13.46-13.48S411.57,318.42,411.45,321.06Z" style="fill:#ebebeb"></path><path d="M393.07,314.05s4.5-.19,4.76,3.69-9.76,14.62-9.76,14.62-7.14-2.58-5.61-12.27S392,311.66,393.07,314.05Z" style="fill:#ebebeb"></path><path d="M389.26,295.47s3-.32,2.76-2.15-11.67-6.54-18.42,1.07c0,0,4.32,7.42,10.56,7.52S389.26,295.47,389.26,295.47Z" style="fill:#ebebeb"></path><path d="M394.85,291s-2.72,1.31-3.48-.37,6.45-11.72,16.2-8.82c0,0,.26,8.58-5,12S394.85,291,394.85,291Z" style="fill:#ebebeb"></path><path d="M380.64,319.58s2.07-1.68-.17-2.49-13.21-.59-13.32,10.28c0,0,12.78,2.12,14.36-2S380.64,319.58,380.64,319.58Z" style="fill:#ebebeb"></path><path d="M406.7,295.2s-2.08-1.68.16-2.49,13.21-.59,13.32,10.28c0,0-12.78,2.13-14.36-2S406.7,295.2,406.7,295.2Z" style="fill:#ebebeb"></path><path d="M399.94,304s-.18-2,1.46-1.23,7.36,7,1.43,12.82c0,0-8-5.91-6.54-9S399.94,304,399.94,304Z" style="fill:#ebebeb"></path><path d="M378.78,306.85s1.24-1.62-.57-1.82-9.95,2-8,10.08c0,0,9.9-.74,10.33-4.11S378.78,306.85,378.78,306.85Z" style="fill:#ebebeb"></path><polygon points="412.25 382.75 378.26 382.75 374.6 345.55 415.91 345.55 412.25 382.75" style="fill:#f0f0f0"></polygon><rect x="372.78" y="341.44" width="44.94" height="8.21" style="fill:#e6e6e6"></rect><path d="M104.44,349.89l9.72-28s-13.48,10-13.39-1.09,6.14-2.47,8.24-6.56-6-4.05-3.14-10.26,10.89,3.33,12.32-2.17,3.69-8.29,9.56-7.8c0,0,3.17,7.24-.72,12.46s9.62,1,8.25,6.3-5.88,9.84-7.87,6.14-4.51,3.39-1.11,5.22-4.44,9.74-6.16,5.59a43.54,43.54,0,0,0-4.41-7.84l-9,30Z" style="fill:#ebebeb"></path><path d="M94.43,350.14l-11-17.91s10.84,4.87,9.1-2.78-4.62-.78-6.69-3.3,3.52-3.7.62-7.57-7,3.95-8.85.36-3.8-5.18-7.79-3.95c0,0-1.1,5.48,2.38,8.51s-6.5,2.17-4.76,5.6S73,335,73.86,332.17s3.63,1.66,1.55,3.44,4.55,6.07,5.11,2.94a30.73,30.73,0,0,1,1.87-6.1l10.72,19.39Z" style="fill:#e6e6e6"></path><path d="M101.81,350.31l-5-28.85s11.55,11.88,13.23,1.07-5.6-3.39-7-7.72,6.47-3,4.7-9.5-11.16,1.52-11.67-4.07-2.28-8.68-8.08-9.13c0,0-4.24,6.55-1.28,12.26s-9.54-.51-9,4.83,4.16,10.54,6.69,7.24,3.85,4,.25,5.27,2.78,10.2,5.11,6.43a43.26,43.26,0,0,1,5.56-6.95l4,30.65Z" style="fill:#f5f5f5"></path><path d="M108,382.75H90.8a2.28,2.28,0,0,1-2.28-2.13L86.7,350.91A2.28,2.28,0,0,1,89,348.49h20.88a2.28,2.28,0,0,1,2.27,2.42l-1.82,29.71A2.28,2.28,0,0,1,108,382.75Z" style="fill:#ebebeb"></path><path d="M111.91,351.84H86.7a2.27,2.27,0,0,1-2.26-2h0a2.28,2.28,0,0,1,2.26-2.54h25.21a2.28,2.28,0,0,1,2.26,2.54h0A2.28,2.28,0,0,1,111.91,351.84Z" style="fill:#f5f5f5"></path></g><g id="freepik--Shadow--inject-43"><ellipse id="freepik--path--inject-43" cx="250" cy="416.24" rx="193.89" ry="11.32" style="fill:#f5f5f5"></ellipse></g><g id="freepik--speech-bubble--inject-43"><path d="M379.67,166.45H352.78a9.25,9.25,0,0,0-9.25,9.25v26.13a9.25,9.25,0,0,0,9.24,9.25h10.72l2.85,9.76,3.37-9.76h10a9.25,9.25,0,0,0,9.24-9.25V175.7A9.25,9.25,0,0,0,379.67,166.45Z" style="fill:#23737D"></path><path d="M356.88,183.53c2.33-3.9,6.91-2.47,9.3.5,2.32-3,6.85-4.58,9.29-.74,4.1,6.48-4.1,12.63-8,15.05l-1.1.69c-.31-.17-.68-.39-1.13-.66C361.31,196.05,352.94,190.11,356.88,183.53Z" style="fill:#fff;opacity:0.7000000000000001"></path></g><g id="freepik--Device--inject-43"><rect x="95.65" y="253.44" width="59.77" height="31.52" style="fill:#23737D"></rect><rect x="95.65" y="253.44" width="59.77" height="31.52" style="fill:#fff;opacity:0.5"></rect><rect x="100.84" y="253.44" width="54.58" height="31.52" style="fill:#fff;opacity:0.2"></rect><path d="M164.94,266.74H88a2.64,2.64,0,0,0-2.64,2.64V417.86H192.11V288.53l-25.48-21.18A2.67,2.67,0,0,0,164.94,266.74Z" style="fill:#23737D"></path><path d="M164.94,266.74H88a2.64,2.64,0,0,0-2.64,2.64V417.86H192.11V288.53l-25.48-21.18A2.67,2.67,0,0,0,164.94,266.74Z" style="fill:#fff;opacity:0.5"></path><path d="M85.4,269.38V417.86h33.71V288.53L92.89,266.74H88A2.64,2.64,0,0,0,85.4,269.38Z" style="opacity:0.1"></path><path d="M164.94,266.74h-72l26.22,21.79h73l-25.48-21.18A2.67,2.67,0,0,0,164.94,266.74Z" style="fill:#fff;opacity:0.30000000000000004"></path><path d="M176.68,184v69.54a3.62,3.62,0,0,1-3.62,3.61H79.14a3.61,3.61,0,0,1-3.61-3.61V184a3.6,3.6,0,0,1,3.61-3.61h93.92A3.61,3.61,0,0,1,176.68,184Z" style="fill:#23737D"></path><path d="M176.68,184v69.54a3.62,3.62,0,0,1-3.62,3.61H79.14a3.61,3.61,0,0,1-3.61-3.61V184a3.6,3.6,0,0,1,3.61-3.61h93.92A3.61,3.61,0,0,1,176.68,184Z" style="fill:#fff;opacity:0.7000000000000001"></path><path d="M176.68,184v69.54a3.62,3.62,0,0,1-3.62,3.61H83.14a3.61,3.61,0,0,1-3.61-3.61V184a3.6,3.6,0,0,1,3.61-3.61h89.92A3.61,3.61,0,0,1,176.68,184Z" style="fill:#fff;opacity:0.2"></path><rect x="84.53" y="185.14" width="87.15" height="67.17" style="fill:#263238"></rect><g style="opacity:0.5"><polygon points="106.75 271.1 103.98 271.1 106.03 272.76 108.79 272.76 106.75 271.1" style="fill:#fff"></polygon><polygon points="110.72 272.76 113.48 272.76 111.43 271.1 108.67 271.1 110.72 272.76" style="fill:#fff"></polygon><polygon points="115.4 272.76 118.17 272.76 116.12 271.1 113.35 271.1 115.4 272.76" style="fill:#fff"></polygon><polygon points="120.8 271.1 118.04 271.1 120.09 272.76 122.85 272.76 120.8 271.1" style="fill:#fff"></polygon><polygon points="125.49 271.1 122.72 271.1 124.77 272.76 127.54 272.76 125.49 271.1" style="fill:#fff"></polygon><polygon points="130.18 271.1 127.41 271.1 129.46 272.76 132.23 272.76 130.18 271.1" style="fill:#fff"></polygon><polygon points="134.86 271.1 132.1 271.1 134.15 272.76 136.91 272.76 134.86 271.1" style="fill:#fff"></polygon><polygon points="138.83 272.76 141.6 272.76 139.55 271.1 136.78 271.1 138.83 272.76" style="fill:#fff"></polygon><polygon points="143.52 272.76 146.28 272.76 144.24 271.1 141.47 271.1 143.52 272.76" style="fill:#fff"></polygon><polygon points="148.92 271.1 146.16 271.1 148.21 272.76 150.97 272.76 148.92 271.1" style="fill:#fff"></polygon><polygon points="150.84 271.1 152.89 272.76 155.66 272.76 153.61 271.1 150.84 271.1" style="fill:#fff"></polygon><polygon points="110.02 273.75 107.25 273.75 109.3 275.41 112.07 275.41 110.02 273.75" style="fill:#fff"></polygon><polygon points="113.99 275.41 116.75 275.41 114.7 273.75 111.94 273.75 113.99 275.41" style="fill:#fff"></polygon><polygon points="118.67 275.41 121.44 275.41 119.39 273.75 116.62 273.75 118.67 275.41" style="fill:#fff"></polygon><polygon points="124.08 273.75 121.31 273.75 123.36 275.41 126.13 275.41 124.08 273.75" style="fill:#fff"></polygon><polygon points="128.76 273.75 126 273.75 128.05 275.41 130.81 275.41 128.76 273.75" style="fill:#fff"></polygon><polygon points="133.45 273.75 130.68 273.75 132.73 275.41 135.5 275.41 133.45 273.75" style="fill:#fff"></polygon><polygon points="138.13 273.75 135.37 273.75 137.42 275.41 140.19 275.41 138.13 273.75" style="fill:#fff"></polygon><polygon points="142.1 275.41 144.87 275.41 142.82 273.75 140.06 273.75 142.1 275.41" style="fill:#fff"></polygon><polygon points="146.79 275.41 149.56 275.41 147.51 273.75 144.74 273.75 146.79 275.41" style="fill:#fff"></polygon><polygon points="152.19 273.75 149.43 273.75 151.48 275.41 154.24 275.41 152.19 273.75" style="fill:#fff"></polygon><polygon points="157.39 276.4 152.7 276.4 154.75 278.07 159.44 278.07 160.32 278.07 162.2 278.07 161.18 277.23 160.15 276.4 156.88 273.75 154.12 273.75 157.39 276.4" style="fill:#fff"></polygon><polygon points="113.29 276.4 110.52 276.4 112.57 278.07 115.34 278.07 113.29 276.4" style="fill:#fff"></polygon><polygon points="117.26 278.07 120.03 278.07 117.97 276.4 115.21 276.4 117.26 278.07" style="fill:#fff"></polygon><polygon points="121.94 278.07 124.71 278.07 122.66 276.4 119.9 276.4 121.94 278.07" style="fill:#fff"></polygon><polygon points="127.35 276.4 124.58 276.4 126.63 278.07 129.4 278.07 127.35 276.4" style="fill:#fff"></polygon><polygon points="132.03 276.4 129.27 276.4 131.32 278.07 134.08 278.07 132.03 276.4" style="fill:#fff"></polygon><polygon points="136.72 276.4 133.96 276.4 136 278.07 138.77 278.07 136.72 276.4" style="fill:#fff"></polygon><polygon points="141.41 276.4 138.64 276.4 140.69 278.07 143.46 278.07 141.41 276.4" style="fill:#fff"></polygon><polygon points="145.38 278.07 148.14 278.07 146.09 276.4 143.33 276.4 145.38 278.07" style="fill:#fff"></polygon><polygon points="150.06 278.07 152.83 278.07 150.78 276.4 148.01 276.4 150.06 278.07" style="fill:#fff"></polygon><polygon points="116.56 279.06 113.8 279.06 115.84 280.72 118.61 280.72 116.56 279.06" style="fill:#fff"></polygon><polygon points="120.53 280.72 123.3 280.72 121.25 279.06 118.48 279.06 120.53 280.72" style="fill:#fff"></polygon><polygon points="125.22 280.72 127.98 280.72 125.93 279.06 123.17 279.06 125.22 280.72" style="fill:#fff"></polygon><polygon points="130.62 279.06 127.85 279.06 129.9 280.72 132.67 280.72 130.62 279.06" style="fill:#fff"></polygon><polygon points="135.31 279.06 132.54 279.06 134.59 280.72 137.36 280.72 135.31 279.06" style="fill:#fff"></polygon><polygon points="139.99 279.06 137.23 279.06 139.28 280.72 142.04 280.72 139.99 279.06" style="fill:#fff"></polygon><polygon points="144.68 279.06 141.91 279.06 143.96 280.72 146.73 280.72 144.68 279.06" style="fill:#fff"></polygon><polygon points="148.65 280.72 151.41 280.72 149.37 279.06 146.6 279.06 148.65 280.72" style="fill:#fff"></polygon><polygon points="153.34 280.72 156.1 280.72 154.05 279.06 151.29 279.06 153.34 280.72" style="fill:#fff"></polygon><polygon points="158.74 279.06 155.97 279.06 158.02 280.72 160.79 280.72 158.74 279.06" style="fill:#fff"></polygon><polygon points="162.71 280.72 165.47 280.72 163.43 279.06 160.66 279.06 162.71 280.72" style="fill:#fff"></polygon><polygon points="118.45 281.71 117.07 281.71 119.12 283.37 120.5 283.37 121.88 283.37 126.57 283.37 124.52 281.71 119.83 281.71 118.45 281.71" style="fill:#fff"></polygon><polygon points="128.49 283.37 131.26 283.37 129.21 281.71 126.44 281.71 128.49 283.37" style="fill:#fff"></polygon><polygon points="149.87 281.71 147.95 281.71 145.19 281.71 143.26 281.71 140.5 281.71 138.58 281.71 135.81 281.71 131.13 281.71 133.18 283.37 137.86 283.37 140.63 283.37 142.55 283.37 145.31 283.37 147.24 283.37 150 283.37 151.92 283.37 152.48 283.37 154.69 283.37 152.64 281.71 150.43 281.71 149.87 281.71" style="fill:#fff"></polygon><polygon points="156.61 283.37 159.37 283.37 157.32 281.71 154.56 281.71 156.61 283.37" style="fill:#fff"></polygon><polygon points="163.93 281.71 159.24 281.71 161.29 283.37 165.98 283.37 166.86 283.37 168.75 283.37 166.7 281.71 164.81 281.71 163.93 281.71" style="fill:#fff"></polygon></g><polygon points="167.02 271.09 158.38 271.09 164.78 276.29 173.43 276.29 167.02 271.09" style="fill:#fff;opacity:0.5"></polygon><polygon points="175.8 278.12 167.16 278.12 173.56 283.32 182.21 283.32 175.8 278.12" style="fill:#fff;opacity:0.5"></polygon><path d="M189.12,413.5H122.8V341.8h66.32Zm-65.32-1h64.32V342.8H123.8Z" style="opacity:0.1"></path><path d="M113.46,201a22.46,22.46,0,0,0,31.76,0l20.89,20.9a52,52,0,0,1-73.54,0Z" style="fill:#fff;opacity:0.2"></path><rect x="87.13" y="240.29" width="15.19" height="10.6" style="fill:#fff;opacity:0.2"></rect><rect x="103.72" y="240.29" width="65.95" height="10.6" style="fill:#fff;opacity:0.2"></rect><rect x="87.13" y="186.55" width="82.56" height="6.47" style="fill:#fff;opacity:0.2"></rect><path d="M106.42,222.65a9.76,9.76,0,0,0,13.84,6.84l.09-.05a28.25,28.25,0,0,0,17.74,3.23c10.66-1.72,12-7.75,11.91-11.86-.09-5.53-6.78-8.21-6.78-8.21a25.13,25.13,0,0,0,3-.25c1.53-.23,1.34-1.77,1.7-2.5s-.07-1-.22-2.35-1.79-.52-2.63,1.76c0,0-8.1-3.29-11.24,1.2-1.77,2.53,1.14,6,1.14,6a31.21,31.21,0,0,0-3.47,1.68s1.31-3.83.15-6.75-5.12,0-5.82,2.06c0,0-1.78.28-1.59,1.55s.76,2.14,1.48,2.18,1.37-1.71,1.37-1.71l1.12-.46s-1.14,1.63-2.18,3.16c-.51-1.34-1.35-1.1-1.35-1.1-.18-.66-.69-.55-.69-.55.07-.66-.85-.66-.85-.66s-.09-1.41-1.22-.69-1.76.68-3-1.2-3.6-3-6.9-1.58A9.25,9.25,0,0,0,106.42,222.65Z" style="fill:#fff;opacity:0.2"></path></g><g id="freepik--character-1--inject-43"><path d="M263.29,211.38s6.8,8.81,8.46,16.73-2.55,3.74-2.55,3.74,2.31,7-.76,8.43-3.69-3-3.69-3-.14,7.86-2.89,8.39-3.46-4.41-3.26-8.39c0,0,0,4.27-2.53,2.95-1.63-.84-3.08-5.65-1.94-11.69,0,0-1,3.16-2.54,1.14-2.21-2.91,1.4-13.15,6.16-17.4Z" style="fill:#263238"></path><path d="M263.61,233.26c1.7,7.82,2.93,16.35,6.28,23.56a4.48,4.48,0,0,0,1.36,1.5c7.71,5.31,17.41,8.39,26.14,11.95a2.57,2.57,0,0,1-1.27,5,127.91,127.91,0,0,1-15.08-3.3c-5.33-1.58-10.14-3.05-15.1-6.15-2.84-1.71-5-5-6.2-7.86-3.25-7.45-5-15-6.32-22.94-.89-6.72,8.81-8.37,10.19-1.72Z" style="fill:#d9877c"></path><path d="M261.2,228.3c5,6.1,9.8,29.32,9.8,29.32l6.64,3.58-5.19,9.88s-11.75-.42-15.36-2.29-9.34-21.36-9.34-21.36Z" style="fill:#23737D"></path><path d="M277.64,261.2l-5.19,9.88s-11.75-.42-15.36-2.29a5.91,5.91,0,0,1-1.88-2.13c-2.39-3.84-5.06-11.64-6.47-16-.62-1.93-1-3.2-1-3.2L261.2,228.3c5,6.1,9.8,29.32,9.8,29.32Z" style="fill:#fff;opacity:0.7000000000000001"></path><path d="M255.21,266.66c-2.39-3.84-5.06-11.64-6.47-16,1.63-4.89,4.68-9.24,9.78-11.4C258.52,239.23,259.93,250.66,255.21,266.66Z" style="opacity:0.1"></path><path d="M274.14,417.85c-6,0-6.78-.09-10.14-.2-2.88-.1-3.57.26-5.88.2-1.94,0-1.86-1.89-1.27-4,.3-1.07.76-3.33,1.17-5.05l8.77-.64c1.23,2.35,4,5.71,7.39,6.17C277.4,414.74,276.52,417.85,274.14,417.85Z" style="fill:#23737D"></path><path d="M223,417.85c-6,0-6.77-.09-10.14-.2-2.88-.1-3.56.26-5.88.2-1.93,0-1.86-1.89-1.26-4,.3-1.07.76-3.33,1.17-5.05l8.76-.64c1.24,2.35,4,5.71,7.39,6.17C226.26,414.74,225.39,417.85,223,417.85Z" style="fill:#23737D"></path><path d="M274.14,417.85c-6,0-6.78-.09-10.14-.2-2.88-.1-3.57.26-5.88.2-1.94,0-1.86-1.89-1.27-4,.3-1.07.76-3.33,1.17-5.05l8.77-.64c1.23,2.35,4,5.71,7.39,6.17C277.4,414.74,276.52,417.85,274.14,417.85Z" style="fill:#fff;opacity:0.7000000000000001"></path><path d="M223,417.85c-6,0-6.77-.09-10.14-.2-2.88-.1-3.56.26-5.88.2-1.93,0-1.86-1.89-1.26-4,.3-1.07.76-3.33,1.17-5.05l8.76-.64c1.24,2.35,4,5.71,7.39,6.17C226.26,414.74,225.39,417.85,223,417.85Z" style="fill:#fff;opacity:0.7000000000000001"></path><path d="M271.25,189.89c2.75,6.63.39,18.59-7.17,23.3s-13.78.76-17.1-7.92-1-17.76,3.94-21.33S267.85,181.68,271.25,189.89Z" style="fill:#263238"></path><path d="M256.23,223.72s7.76,11.7-4.27,49.66c-1.41,4.46,0,18.14,0,18.14L229,282.92S233.22,232.63,256.23,223.72Z" style="fill:#23737D"></path><path d="M256.23,223.72s7.76,11.7-4.27,49.66c-1.41,4.46,0,18.14,0,18.14L229,282.92S233.22,232.63,256.23,223.72Z" style="fill:#fff;opacity:0.7000000000000001"></path><path d="M256.23,223.72s7.76,11.7-4.27,49.66c-1.41,4.46,0,18.14,0,18.14L229,282.92S233.22,232.63,256.23,223.72Z" style="opacity:0.4"></path><path d="M236.18,254.92s7.76,49.31,10.93,73.21c3.33,25.1,14.13,63.78,19.65,79.21-1.12,1.18-6.15,2.06-9.05,2,0,0-31-46.86-26.26-74.06-23.83-53.36-20.12-77.67-20.12-77.67Z" style="fill:#263238"></path><path d="M224.83,319.4c-7.72-20-10.34-33.4-11-41.9,4.41-1.48,7.55-2.28,7.55-2.28S228.46,290.87,224.83,319.4Z" style="opacity:0.2"></path><path d="M229.35,254s-6.39,49.52-10.06,73.34c-3.85,25-4.34,65.18-3.38,81.54-1.4.82-6.48.25-9.24-.61,0,0-16.61-53.68-4.41-78.46-7.89-57.9,3.53-72.07,3.53-72.07Z" style="fill:#263238"></path><path d="M259,242.26c-3.56,7.58-21.83,18.27-21.83,18.27l-26.9-8.32c5.82-7,11-16.08,18.18-36.11a7.52,7.52,0,0,1,10.93-4.22c1.12.64,2.29,1.34,3.46,2.09a103.29,103.29,0,0,1,11.93,8.53c1.21,1.05,2.44,2.17,3.6,3.27C262.58,229.73,261.46,237.11,259,242.26Z" style="fill:#23737D"></path><path d="M256.23,223.72s5.4,3.81,5.72,6.18c.88,6.35-10.12,44.35-10.12,44.35S256.67,244.37,256.23,223.72Z" style="fill:#23737D"></path><path d="M262,229.91c.26,1.87-.51,6.48-1.73,12.07-.57,2.61-1.23,5.44-1.94,8.29h0c-2.81,11.41-6.24,23.3-6.43,24,.08-.5,1.51-9.44,2.71-20.76,0,0,0-.05,0-.08a1.18,1.18,0,0,0,0-.26c.07-.53.13-1.06.18-1.6.3-2.91.58-6,.81-9,.49-6.41.78-13,.65-18.77,0,0,.53.37,1.26.95C259.09,226,261.73,228.27,262,229.91Z" style="fill:#fff;opacity:0.7000000000000001"></path><path d="M255.75,222.62a10.91,10.91,0,0,1,3.46,6.86L257.38,231l1.74,5.29s-2.2,11.3-4.57,17.24C254.55,253.53,256.33,230.24,255.75,222.62Z" style="fill:#23737D"></path><path d="M259.21,229.48,257.37,231l1.75,5.29s-.5,2.6-1.28,6c-.68,2.86-1.55,6.25-2.49,9.08-.26.78-.52,1.52-.8,2.19v0s0-.05,0-.08a1.18,1.18,0,0,0,0-.26c0-.33.06-.88.12-1.58.14-2,.36-5.29.58-9,.41-7.12.78-15.8.47-19.9a9.1,9.1,0,0,1,1.73,2A11.66,11.66,0,0,1,259.21,229.48Z" style="fill:#fff;opacity:0.6000000000000001"></path><path d="M255,218.66c-.65,1.44-.47,3.09,1.25,5.06,0,0,.74,2-4.37,3.07-3.43-9.45-7.56-11.6-7.56-11.6a5.4,5.4,0,0,0,2.63-.86c2.72-1.76,3.85-5.83,5.74-8.9l10,1-.08.12C261.77,207.79,255.57,217.34,255,218.66Z" style="fill:#d9877c"></path><path d="M250.92,224.67c-2.8-1.46-6.34,1.82-6.34,1.82s-3-8.69-2.78-13.12a32,32,0,0,0,3.24.18S250.49,222.14,250.92,224.67Z" style="fill:#23737D"></path><path d="M254.09,226.14s1.3.32,1.78,4.21a9.86,9.86,0,0,0,.12-9.3,2.9,2.9,0,0,0-1.35-1,2.93,2.93,0,0,0,.35,1.87C255.69,223.32,254.09,226.14,254.09,226.14Z" style="fill:#23737D"></path><path d="M250.92,224.67c-2.8-1.46-6.34,1.82-6.34,1.82s-3-8.69-2.78-13.12a32,32,0,0,0,3.24.18S250.49,222.14,250.92,224.67Z" style="opacity:0.2"></path><path d="M254.09,226.14s1.3.32,1.78,4.21a9.86,9.86,0,0,0,.12-9.3,2.9,2.9,0,0,0-1.35-1,2.93,2.93,0,0,0,.35,1.87C255.69,223.32,254.09,226.14,254.09,226.14Z" style="opacity:0.2"></path><path d="M262.62,206.48l-.08.12c-.8,1.14-7.33,10.08-15.61,7.73,2.72-1.76,3.85-5.83,5.74-8.9Z" style="opacity:0.2"></path><path d="M266.06,198.18c-2.67,7.28-3.65,10.41-8.55,13.29-7.36,4.34-15.74,0-15.3-7.82.4-7,4.71-17.75,12.87-18.93A9.93,9.93,0,0,1,266.06,198.18Z" style="fill:#d9877c"></path><path d="M257.64,181.27c-5.67-.05-14,5.09-6.83,6.71-.09,2.31,4.15,2.55,7.29,1.48-.53,1.68,2.16,5.19,6.08,4.35-2.29,1.1-2.75,6.9-.07,7.37s8.27,2.28,7.84-7.29S263.69,181.33,257.64,181.27Z" style="fill:#263238"></path><path d="M248.48,195.66c-.2.62-.68,1.05-1.08,1s-.57-.68-.37-1.3.68-1.05,1.08-.95S248.68,195,248.48,195.66Z" style="fill:#263238"></path><path d="M248.28,194.44l-1.34-.79S247.33,195,248.28,194.44Z" style="fill:#263238"></path><path d="M255.8,197.8c-.2.62-.68,1-1.09.94s-.56-.68-.37-1.3.69-1,1.09-.94S256,197.18,255.8,197.8Z" style="fill:#263238"></path><path d="M255.6,196.57l-1.34-.79S254.64,197.13,255.6,196.57Z" style="fill:#263238"></path><path d="M250.44,197.61A19,19,0,0,1,247,201a2.59,2.59,0,0,0,2.06,1Z" style="fill:#ba4d3c"></path><path d="M251.92,205.27a5.71,5.71,0,0,1-1.07-.07.17.17,0,0,1-.14-.21.19.19,0,0,1,.22-.16,5.48,5.48,0,0,0,4.49-1.36.18.18,0,0,1,.26,0,.19.19,0,0,1,0,.27A5.73,5.73,0,0,1,251.92,205.27Z" style="fill:#263238"></path><path d="M266.69,204.86a6.19,6.19,0,0,1-4.37,1.86c-2.11,0-2.43-2.21-1.23-4,1.09-1.62,3.49-3.55,5.3-2.65S268.17,203.38,266.69,204.86Z" style="fill:#d9877c"></path><path d="M258,193.94a.36.36,0,0,1-.22-.18,2.79,2.79,0,0,0-2.13-1.56.35.35,0,0,1-.33-.4.41.41,0,0,1,.43-.35,3.52,3.52,0,0,1,2.72,2,.38.38,0,0,1-.18.5A.43.43,0,0,1,258,193.94Z" style="fill:#263238"></path><path d="M246.58,190.79a.33.33,0,0,1-.25-.11.38.38,0,0,1,0-.53,3.94,3.94,0,0,1,3.35-1.11.34.34,0,0,1,.26.44.41.41,0,0,1-.47.29,3.18,3.18,0,0,0-2.64.91A.38.38,0,0,1,246.58,190.79Z" style="fill:#263238"></path><path d="M241.8,213.37s-1.92,31.37-27.17,58A69.25,69.25,0,0,0,207.69,288s-6.66.45-9.68-2.9c0,0-3-26.74,11.46-35,0,0,16.5-31,19.44-36.83S239.84,210.14,241.8,213.37Z" style="fill:#23737D"></path><path d="M241.8,213.37s-.6,9.67-5.44,22.84A104.8,104.8,0,0,1,231.17,248l0,.08a1.92,1.92,0,0,0-.12.25c-.1.18-.2.36-.29.54a101.32,101.32,0,0,1-16.09,22.5A68.62,68.62,0,0,0,207.69,288s-6.67.46-9.68-2.89c0,0-3-26.74,11.46-35,0,0,4.5-8.45,9.22-17.36l4.09-7.75c2.79-5.28,5.17-9.83,6.13-11.71,2.6-5.12,9.1-3.69,11.94-1.07A5.39,5.39,0,0,1,241.8,213.37Z" style="fill:#fff;opacity:0.7000000000000001"></path><path d="M240.63,212.31a2.73,2.73,0,0,1,3.12.59S244,227.51,231,248.31c0,0,5.06-10,4.62-25l4.1-2.88-3.13-4.47S238.66,213.06,240.63,212.31Z" style="fill:#23737D"></path><path d="M243.75,212.9s.15,10.32-7.47,25.95c-1.45,2.93-3.16,6.06-5.2,9.34a.69.69,0,0,1,.06-.13l0-.08a51.62,51.62,0,0,0,3.77-13.37,62.58,62.58,0,0,0,.69-11.32l4.11-2.88-3.14-4.47s2.06-2.89,4-3.63a.83.83,0,0,1,.21-.06A2.65,2.65,0,0,1,243.75,212.9Z" style="fill:#fff;opacity:0.6000000000000001"></path><path d="M294.34,270.35l10.22-2.65.86,9.19s-6.88,2.86-11.14-1.58Z" style="fill:#d9877c"></path><polygon points="311.87 269.44 310.87 276.45 305.42 276.89 304.56 267.7 311.87 269.44" style="fill:#d9877c"></polygon><path d="M309.68,270.83,297.21,255a1.41,1.41,0,0,0-2-.24L291,258.08a1.4,1.4,0,0,0-.24,2l12.48,15.88,2.08,4.52a.92.92,0,0,0,1.4.34l6.91-5.42a.93.93,0,0,0,0-1.45Z" style="fill:#23737D"></path><path d="M313.58,275.37l-6.91,5.42a.91.91,0,0,1-1.4-.35l-2.08-4.51-12.48-15.88a1.41,1.41,0,0,1,.24-2l4.28-3.36a1.41,1.41,0,0,1,2,.24l12.47,15.88,3.89,3.09A.93.93,0,0,1,313.58,275.37Z" style="fill:#fff;opacity:0.7000000000000001"></path><path d="M293.81,255.83a.9.9,0,0,0-.15,1.28l12.77,16.27,3.18,5.11-2.94,2.3a.91.91,0,0,1-1.4-.35l-2.08-4.51-12.48-15.88a1.41,1.41,0,0,1,.24-2Z" style="opacity:0.1"></path><path d="M231,224.36s-6.56,7-12.32,8.42l4.09-7.75C226.08,224,229.37,223.51,231,224.36Z" style="opacity:0.1"></path><path d="M233,219.57a118.79,118.79,0,0,1-13.43,6.4c-4.77,1.79-9.92,3.83-15.22,3.52-5.71-.81-10.54-2.82-15.66-4.9a145,145,0,0,1-13.15-6.4,2.58,2.58,0,0,1,1.93-4.73c4.82,1.32,15.84,4.51,20.52,5.56a33.24,33.24,0,0,0,7.4,1.12c7.95-1.75,15.41-6.15,22.75-9.69,6.06-2.89,10.65,5.68,4.86,9.12Z" style="fill:#d9877c"></path><path d="M178.43,213.63l-10.16-2.86-1.05,9.17s6.82,3,11.17-1.35Z" style="fill:#d9877c"></path><polygon points="160.92 212.36 161.78 219.39 167.22 219.94 168.27 210.76 160.92 212.36" style="fill:#d9877c"></polygon><path d="M236.45,209.88c-4.09-1.43-6.64-1.79-29.36,9.15L197,217.72l-1.95,10.84s7.4,4.3,12.08,4.43,24.51-7.8,24.51-7.8a21.3,21.3,0,0,0,4.07-7A21,21,0,0,0,236.45,209.88Z" style="fill:#23737D"></path><path d="M236.45,209.88c-4.09-1.43-6.64-1.79-29.36,9.15L197,217.72l-1.95,10.84s7.4,4.3,12.08,4.43,24.51-7.8,24.51-7.8a21.3,21.3,0,0,0,4.07-7A21,21,0,0,0,236.45,209.88Z" style="fill:#fff;opacity:0.7000000000000001"></path></g><g id="freepik--character-2--inject-43"><rect x="259.54" y="373.26" width="71.49" height="29.49" style="fill:#263238"></rect><rect x="259.54" y="373.26" width="34.74" height="29.49" style="fill:#fff;opacity:0.2"></rect><path d="M331.69,376H258.88a7.6,7.6,0,0,1-6.24-3.26l-19.8-28.51H357.73l-19.8,28.51A7.6,7.6,0,0,1,331.69,376Z" style="fill:#263238"></path><path d="M339.06,398.77H251.51a6.46,6.46,0,0,0-2.89.68L229.52,409a4.09,4.09,0,0,0-2.27,3.67v5.58H363.33v-5.58a4.08,4.08,0,0,0-2.28-3.67L342,399.45A6.46,6.46,0,0,0,339.06,398.77Z" style="fill:#263238"></path><path d="M274,376H258.88a7.59,7.59,0,0,1-6.24-3.26l-19.8-28.51h30.77l6.46,28.6A4.08,4.08,0,0,0,274,376Z" style="fill:#fff;opacity:0.2"></path><path d="M272.85,398.77a5.06,5.06,0,0,0-2.84.87l-12.62,8.49a5.08,5.08,0,0,0-2.24,4.22v5.88H227.24v-5.58a4.08,4.08,0,0,1,2.28-3.67l19.11-9.53a6.4,6.4,0,0,1,2.89-.68Z" style="fill:#fff;opacity:0.2"></path><path d="M375.12,350.49H174.88a6.13,6.13,0,0,1-6.13-6.13v-8.85l198.33-4.9,53.58-75L429,266.59a6.13,6.13,0,0,1,.23,7.09l-49,74.06A6.14,6.14,0,0,1,375.12,350.49Z" style="fill:#263238"></path><path d="M429.21,273.68l-49,74.06a6.14,6.14,0,0,1-5.12,2.75H174.88a6.14,6.14,0,0,1-6.14-6.13v-8.85l79.84-2,118.5-2.93,53.58-75L429,266.59A6.13,6.13,0,0,1,429.21,273.68Z" style="fill:#fff;isolation:isolate;opacity:0.30000000000000004"></path><path d="M429.21,273.68l-49,74.06a6.14,6.14,0,0,1-5.12,2.75H251.88a6.14,6.14,0,0,1-6.13-6.13v-8.85l2.83-2,118.5-2.93,53.58-75L429,266.59A6.13,6.13,0,0,1,429.21,273.68Z" style="opacity:0.2"></path><path d="M414.09,241.35H336.93a3.39,3.39,0,0,0-2.84,1.53l-50.21,76.48a3.4,3.4,0,0,1-2.83,1.53H160.48a3.39,3.39,0,0,0-3.39,3.39v10.13a3.39,3.39,0,0,0,3.39,3.39h209.7a3.42,3.42,0,0,0,2.84-1.53l54.36-82.8a3.4,3.4,0,0,0-1-4.7L416,241.91A3.33,3.33,0,0,0,414.09,241.35Z" style="fill:#23737D"></path><path d="M414.09,241.35H336.93a3.39,3.39,0,0,0-2.84,1.53l-50.21,76.48a3.4,3.4,0,0,1-2.83,1.53H160.48a3.39,3.39,0,0,0-3.39,3.39v10.13a3.39,3.39,0,0,0,3.39,3.39h209.7a3.42,3.42,0,0,0,2.84-1.53l54.36-82.8a3.4,3.4,0,0,0-1-4.7L416,241.91A3.33,3.33,0,0,0,414.09,241.35Z" style="fill:#fff;opacity:0.7000000000000001"></path><path d="M413.24,244.18l-49.35,75.18a3.42,3.42,0,0,1-2.84,1.53H240.49a3.39,3.39,0,0,0-3.39,3.39v10.13a3.39,3.39,0,0,0,3.39,3.39H370.18a3.42,3.42,0,0,0,2.84-1.53l54.36-82.8a3.4,3.4,0,0,0-1-4.7l-8.47-5.56A3.4,3.4,0,0,0,413.24,244.18Z" style="opacity:0.2"></path><path d="M349.76,251.25c-.06-5.39-5.57-11.75,7.74-19,10.93-5.94,19.32,1,21.62,3A12.48,12.48,0,0,1,386,243.2c2.05,6.23-7.91,12.21-7.53,16.94s5,10.88-4.2,14.26c-9.51,3.5-10.56,7-10.56,7s-29.15-3.69-31.58-10.35,1.88-12.7,12.34-15.54C348.61,254.35,349.78,253.46,349.76,251.25Z" style="fill:#263238"></path><path d="M340.28,269.06c-1.64,1.78-3.34,3.47-5,5.2s-3.46,3.37-5.21,5-3.57,3.3-5.42,4.93c-.95.81-1.89,1.6-3,2.42a34,34,0,0,1-3.33,2.28,132.31,132.31,0,0,1-13.16,6.67c-4.42,2-8.88,3.81-13.42,5.5a2.24,2.24,0,0,1-1.93-4h0l12.29-7.32c2-1.23,4.08-2.43,6.07-3.68s4-2.49,5.79-3.78a25.09,25.09,0,0,0,2.48-1.94c.78-.7,1.61-1.53,2.43-2.34,1.66-1.61,3.28-3.33,4.95-5l5-5.11c1.68-1.68,3.32-3.42,5-5.07h0a4.5,4.5,0,0,1,6.47,6.25Z" style="fill:#ebc0bb"></path><path d="M340.28,269.06c-1.64,1.78-3.34,3.47-5,5.2s-3.46,3.37-5.21,5-3.57,3.3-5.42,4.93c-.95.81-1.89,1.6-3,2.42a34,34,0,0,1-3.33,2.28,132.31,132.31,0,0,1-13.16,6.67c-4.42,2-8.88,3.81-13.42,5.5a2.24,2.24,0,0,1-1.93-4h0l12.29-7.32c2-1.23,4.08-2.43,6.07-3.68s4-2.49,5.79-3.78a25.09,25.09,0,0,0,2.48-1.94c.78-.7,1.61-1.53,2.43-2.34,1.66-1.61,3.28-3.33,4.95-5l5-5.11c1.68-1.68,3.32-3.42,5-5.07h0a4.5,4.5,0,0,1,6.47,6.25Z" style="opacity:0.1"></path><path d="M371.85,266.56A155.41,155.41,0,0,1,363.36,283h0a92.74,92.74,0,0,1-25.1,27.66l-25.13-18.9L323,278.26s-.23-9.1,8.68-11.78c0,0,4.31-4.79,5.88-5,6.54-1,10.14.73,24.42,2.76C364.73,264.61,371,265.43,371.85,266.56Z" style="fill:#23737D"></path><path d="M363.72,252.92c-3,3.61-4.68,9.91-1.7,11.31,0,0-9.56,4-17.83,2.94-2.38-2,.21-5.67.21-5.67,5.19,1.07,6.91-2.28,7.84-5.74Z" style="fill:#eec1bb"></path><path d="M362,253.36l-9.71,2.39a13.92,13.92,0,0,1-.83,2.38s3.51,2.66,8.68,0C361,257.71,361.86,253.84,362,253.36Z" style="opacity:0.2"></path><path d="M372.39,245.94c-3.37,6.68-4.65,9.56-9.65,11.78-7.52,3.34-15.06-1.75-13.78-9.17,1.15-6.68,6.46-16.47,14.4-16.7A9.57,9.57,0,0,1,372.39,245.94Z" style="fill:#eec1bb"></path><path d="M363,244.52c-.26.57-.77.92-1.15.78s-.46-.71-.21-1.28.77-.93,1.15-.79S363.3,244,363,244.52Z" style="fill:#263238"></path><path d="M355.84,241.6c-.26.57-.77.92-1.14.78s-.47-.71-.21-1.28.77-.93,1.14-.79S356.1,241,355.84,241.6Z" style="fill:#263238"></path><path d="M355.78,240.4l-1.2-.9S354.81,240.83,355.78,240.4Z" style="fill:#263238"></path><path d="M357.5,243.68a18.59,18.59,0,0,1-3.69,2.89c.44,1,1.87,1.14,1.87,1.14Z" style="fill:#d4827d"></path><path d="M358,251a4.89,4.89,0,0,1-1-.27.17.17,0,0,1-.1-.23.22.22,0,0,1,.25-.11,5.14,5.14,0,0,0,4.49-.4.19.19,0,0,1,.26,0,.18.18,0,0,1-.06.25A5.47,5.47,0,0,1,358,251Z" style="fill:#263238"></path><path d="M365.73,241.33a.3.3,0,0,1-.21-.17,2.7,2.7,0,0,0-2-1.54.34.34,0,0,1-.31-.39.39.39,0,0,1,.42-.32,3.32,3.32,0,0,1,2.59,1.91.37.37,0,0,1-.19.48A.32.32,0,0,1,365.73,241.33Z" style="fill:#263238"></path><path d="M354.55,236.73a.37.37,0,0,1-.23-.14.36.36,0,0,1,.1-.5,3.85,3.85,0,0,1,3.33-.7.34.34,0,0,1,.2.46.41.41,0,0,1-.48.22,3.05,3.05,0,0,0-2.63.58A.39.39,0,0,1,354.55,236.73Z" style="fill:#263238"></path><path d="M363,243.32l-1.2-.9S362,243.75,363,243.32Z" style="fill:#263238"></path><path d="M367.72,249.12s-2.19-5.94,2.35-12.76c0,0-6.9-5.79-14.32-1.48,0,0,8-8.31,18.38-.75s-1.13,16.48-2.8,17S367.72,249.12,367.72,249.12Z" style="fill:#263238"></path><path d="M372.26,252.41a6,6,0,0,1-4.4,1.29c-2-.26-2.08-2.38-.73-4,1.22-1.43,3.73-3,5.37-1.95S373.83,251.16,372.26,252.41Z" style="fill:#eec1bb"></path><path d="M306.31,282.11s-1.63-1.14,2-4.85c6.77-6.9,15.06-7.92,29.75-3.57,9,2.66,13.35,11.26,15.16,16.2s4.75,14.29-8.8,17.2C336.17,308.86,306.31,282.11,306.31,282.11Z" style="fill:#23737D"></path><path d="M306.31,282.11s-1.63-1.14,2-4.85c6.77-6.9,15.06-7.92,29.75-3.57,9,2.66,13.35,11.26,15.16,16.2s4.75,14.29-8.8,17.2C336.17,308.86,306.31,282.11,306.31,282.11Z" style="opacity:0.2"></path><path d="M302.31,298.26s-3.45-10.36,6.93-19.45c9.72-8.52,23.4-7.69,34.47.16,8.36,5.93,8.4,18.18,8.4,18.18L341.7,308.53S308.57,305.17,302.31,298.26Z" style="fill:#ebc0bb"></path><path d="M347.26,302.46s-3.55,6.06-11.7,14.88c-5.18,5.6-18.05,7.28-34.9,5.35-13.7-1.57-46.73-10-46.73-10-13.61,3.69-47.44,8-47.44,8l-2.81-9.52s38.08-17.35,48.35-18.67c10.65-1.37,42.89,3.62,42.89,3.62l6.89-3.42S315.72,288.13,347.26,302.46Z" style="fill:#263238"></path><path d="M347.26,302.46s-3.55,6.06-11.7,14.88c-5.18,5.6-18.05,7.28-34.9,5.35-13.7-1.57-46.73-10-46.73-10-13.61,3.69-47.44,8-47.44,8l-2.81-9.52s38.08-17.35,48.35-18.67c10.65-1.37,42.89,3.62,42.89,3.62l6.89-3.42S315.72,288.13,347.26,302.46Z" style="fill:#fff;isolation:isolate;opacity:0.30000000000000004"></path><path d="M188.86,307c2.56,5.64,3.19,6.05,4.74,9.2,1.34,2.69.9,3.28,2.15,6,.82,1.83,3.21,1.57,4.61.53.84-.63,1.74-1.5,2.81-2.22a1.35,1.35,0,0,0,.51-1.73L201,312.9a1.85,1.85,0,0,0-1.11-1,13.47,13.47,0,0,1-8-6.78C190.3,302.13,187.84,304.69,188.86,307Z" style="fill:#eec1bb"></path><polygon points="200.49 311.44 204.79 310.66 207.33 321.51 203.99 321.51 200.49 311.44" style="fill:#23737D"></polygon><path d="M347.26,302.46a96.83,96.83,0,0,1-10.81,14.88c-4.77,5.6-16.66,7.28-32.22,5.35-12.65-1.57-40.15-10-40.15-10-12.57,3.69-46.81,8-46.81,8l-2.59-9.52s38.16-17.35,47.65-18.67c9.83-1.37,36.6,3.62,36.6,3.62l12.22,2.46s-8.32-3.94-11.42-3.41l2.08-2.47S318.14,288.13,347.26,302.46Z" style="fill:#263238"></path><path d="M199.86,307c2.56,5.64,3.19,6.05,4.74,9.2,1.34,2.69.9,3.28,2.15,6,.82,1.83,3.21,1.57,4.61.53.84-.63,1.74-1.5,2.82-2.22a1.36,1.36,0,0,0,.5-1.73L212,312.9a1.85,1.85,0,0,0-1.11-1,13.47,13.47,0,0,1-8-6.78C201.3,302.13,198.84,304.69,199.86,307Z" style="fill:#eec1bb"></path><path d="M347.26,302.46a96.83,96.83,0,0,1-10.81,14.88c-4.77,5.6-16.66,7.28-32.22,5.35-12.65-1.57-40.15-10-40.15-10-12.57,3.69-46.81,8-46.81,8l-2.59-9.52s38.16-17.35,47.65-18.67c9.83-1.37,36.6,3.62,36.6,3.62l12.22,2.46s-8.32-3.94-11.42-3.41l2.08-2.47S318.14,288.13,347.26,302.46Z" style="fill:#fff;isolation:isolate;opacity:0.4"></path><polygon points="211.49 311.44 215.79 310.66 218.33 321.51 214.99 321.51 211.49 311.44" style="fill:#23737D"></polygon><path d="M345,309.93l-7.13,3,3.62,5.73s5.28-1.43,5.77-5.92Z" style="fill:#eec1bb"></path><polygon points="334.4 317.26 338.13 320.89 341.49 318.7 337.87 312.97 334.4 317.26" style="fill:#eec1bb"></polygon><path d="M373.79,269.57a103.67,103.67,0,0,1,.67,14.31c-.2,4.24-.28,9.48-2.91,13.2a36,36,0,0,1-7.88,7.2,121.47,121.47,0,0,1-18.35,10.61,2.24,2.24,0,0,1-2.28-3.82c5.46-4.05,11-8.11,16.09-12.54,2.24-2,4.51-3.91,5.92-6.35,1.36-6.91.18-14.64-.21-21.71a4.5,4.5,0,0,1,9-.9Z" style="fill:#ebc0bb"></path></g></svg>
