<?xml version="1.0" encoding="iso-8859-1"?>
<!-- Uploaded to: SVG Repo, www.svgrepo.com, Generator: SVG Repo Mixer Tools -->
<svg fill="#23737D" version="1.1" id="Layer_1" xmlns="http://www.w3.org/2000/svg" xmlns:xlink="http://www.w3.org/1999/xlink" 
	 viewBox="0 0 512 512" xml:space="preserve">
<g>
	<g>
		<g>
			<rect x="192" y="170.667" width="128" height="42.667"/>
			<path d="M393.557,0H118.443C88.427,0,64,24.427,64,54.421V64h384v-9.579C448,24.427,423.573,0,393.557,0z"/>
			<path d="M64,405.333h384V106.667H64V405.333z M341.333,384h-42.667c-11.797,0-21.333-9.557-21.333-21.333
				s9.536-21.333,21.333-21.333h42.667c11.797,0,21.333,9.557,21.333,21.333S353.131,384,341.333,384z M341.333,320h-42.667
				c-11.797,0-21.333-9.557-21.333-21.333s9.536-21.333,21.333-21.333h42.667c11.797,0,21.333,9.557,21.333,21.333
				S353.131,320,341.333,320z M149.333,149.333c0-11.776,9.536-21.333,21.333-21.333h170.667c11.797,0,21.333,9.557,21.333,21.333
				v85.333c0,11.776-9.536,21.333-21.333,21.333H170.667c-11.797,0-21.333-9.557-21.333-21.333V149.333z M170.667,277.333h42.667
				c11.797,0,21.333,9.557,21.333,21.333S225.131,320,213.333,320h-42.667c-11.797,0-21.333-9.557-21.333-21.333
				S158.869,277.333,170.667,277.333z M170.667,341.333h42.667c11.797,0,21.333,9.557,21.333,21.333S225.131,384,213.333,384
				h-42.667c-11.797,0-21.333-9.557-21.333-21.333S158.869,341.333,170.667,341.333z"/>
			<path d="M64,457.579C64,487.573,88.427,512,118.443,512h275.136C423.573,512,448,487.573,448,457.579V448H64V457.579z"/>
		</g>
	</g>
</g>
</svg>